<svg width="16" height="16" viewBox="0 0 16 16" fill="none" xmlns="http://www.w3.org/2000/svg">
<path d="M8 15C11.866 15 15 11.866 15 8C15 4.13401 11.866 1 8 1C4.13401 1 1 4.13401 1 8C1 11.866 4.13401 15 8 15Z" fill="#F5BB5C"/>
<path fill-rule="evenodd" clip-rule="evenodd" d="M8.81993 13.4H7.21993C7.07671 13.4 6.93936 13.3431 6.83809 13.2419C6.73682 13.1406 6.67993 13.0032 6.67993 12.86V11.53H9.35993V12.86C9.35993 13.0032 9.30304 13.1406 9.20177 13.2419C9.1005 13.3431 8.96315 13.4 8.81993 13.4Z" fill="#FFE1B2"/>
<path fill-rule="evenodd" clip-rule="evenodd" d="M6.69006 11.79V11.53C6.69006 11.19 6.63506 10.853 6.53006 10.53C6.38993 10.247 6.21159 9.98456 6.00006 9.75005C5.63167 9.44729 5.33419 9.06741 5.12858 8.63718C4.92297 8.20696 4.81424 7.73686 4.81006 7.26005C4.81006 6.4087 5.14825 5.59223 5.75025 4.99024C6.35224 4.38824 7.16871 4.05005 8.02006 4.05005C8.8714 4.05005 9.68788 4.38824 10.2899 4.99024C10.8919 5.59223 11.2301 6.4087 11.2301 7.26005C11.2215 7.74729 11.1071 8.22685 10.8947 8.66545C10.6823 9.10405 10.377 9.4912 10.0001 9.80005C10.0701 9.75005 9.92006 9.86005 9.82006 10C9.72163 10.1451 9.6442 10.3033 9.59006 10.47C9.48819 10.7935 9.43758 11.1309 9.44006 11.47V11.73" fill="#FCF0DE"/>
<path d="M7.46006 4.78003C6.99365 4.85861 6.56544 5.08675 6.24006 5.43003C5.89889 5.76139 5.66245 6.18558 5.56006 6.65003" stroke="white" stroke-width="2" stroke-linecap="round" stroke-linejoin="round"/>
<path fill-rule="evenodd" clip-rule="evenodd" d="M8.81993 13.4H7.21993C7.07671 13.4 6.93936 13.3431 6.83809 13.2419C6.73682 13.1406 6.67993 13.0032 6.67993 12.86V11.53H9.35993V12.86C9.35993 13.0032 9.30304 13.1406 9.20177 13.2419C9.1005 13.3431 8.96315 13.4 8.81993 13.4V13.4Z" stroke="#5D3B01" stroke-linecap="round" stroke-linejoin="round"/>
<path d="M8.0001 1.5V2.76M6.6801 11.79V11.53C6.68274 11.1909 6.63213 10.8534 6.5301 10.53C6.46496 10.3624 6.3775 10.2043 6.2701 10.06C6.16321 9.9033 6.0391 9.75907 5.9001 9.63C5.76669 9.50994 5.64298 9.37953 5.5301 9.24C5.06707 8.67607 4.81277 7.96966 4.8101 7.24C4.8101 6.38865 5.14829 5.57218 5.75029 4.97019C6.35228 4.3682 7.16875 4.03 8.0201 4.03C8.87144 4.03 9.68792 4.3682 10.2899 4.97019C10.8919 5.57218 11.2301 6.38865 11.2301 7.24C11.2182 7.96972 10.9611 8.67421 10.5001 9.24C10.3301 9.45 10.1401 9.64 9.9301 9.81C9.85844 9.87507 9.79159 9.94525 9.7301 10.02C9.63469 10.1654 9.5606 10.3236 9.5101 10.49C9.40823 10.8135 9.35762 11.1509 9.3601 11.49V11.75L6.6801 11.79ZM4.6001 2.636L5.2101 3.427L4.6001 2.636ZM11.4151 2.632L10.8101 3.427L11.4151 2.632Z" stroke="#5D3B01" stroke-linecap="round" stroke-linejoin="round"/>
</svg>
