<svg width="20" height="21" viewBox="0 0 20 21" fill="none" xmlns="http://www.w3.org/2000/svg">
<path d="M15.5135 10L13.3635 7C12.2752 5.40055 11.5108 3.60336 11.1135 1.71L10.7435 0H8.50354C7.8405 0 7.20462 0.263392 6.73577 0.732233C6.26693 1.20107 6.00354 1.83696 6.00354 2.5V3.08C6.00252 3.88741 6.11015 4.69129 6.32354 5.47L7.00354 8H2.66354C1.99765 7.98509 1.35125 8.22534 0.85672 8.67152C0.362195 9.11771 0.0569656 9.73608 0.00354116 10.4C-0.0152745 10.9053 0.120805 11.4042 0.393541 11.83C0.0442841 12.3736 -0.0790328 13.032 0.049837 13.6652C0.178707 14.2983 0.549587 14.8562 1.08354 15.22C0.927161 15.7998 0.988278 16.4168 1.25537 16.9547C1.52247 17.4926 1.97709 17.9142 2.53354 18.14C2.52478 18.2598 2.52478 18.3802 2.53354 18.5C2.53349 19.1579 2.79276 19.7893 3.25514 20.2572C3.71751 20.7252 4.34571 20.9921 5.00354 21H9.52354C10.1776 20.9996 10.8291 20.919 11.4635 20.76L14.4635 20H19.0035V10H15.5135ZM17.0035 18H14.8835L11.4735 18.82C10.9929 18.9405 10.4991 19.0009 10.0035 19H5.00354C4.76657 19 4.53915 18.9066 4.37065 18.7399C4.20216 18.5733 4.10617 18.347 4.10354 18.11V17.97L4.25354 16.97L3.25354 16.57C3.09037 16.5011 2.95114 16.3856 2.85331 16.238C2.75547 16.0903 2.70338 15.9171 2.70354 15.74C2.69484 15.6669 2.69484 15.5931 2.70354 15.52L3.00354 14.57L2.27354 14C2.15349 13.9174 2.05528 13.807 1.98735 13.6781C1.91941 13.5492 1.88379 13.4057 1.88354 13.26C1.88418 13.1053 1.92557 12.9536 2.00354 12.82L2.46354 12.1L2.00354 11.38C1.90569 11.2284 1.85681 11.0503 1.86354 10.87C1.89527 10.6279 2.01448 10.4058 2.19869 10.2455C2.3829 10.0853 2.61938 9.99793 2.86354 10H9.50354L8.20354 5.3C7.98854 4.52821 7.87756 3.73117 7.87354 2.93V2.38C7.87354 2.24739 7.92622 2.12021 8.01999 2.02645C8.11376 1.93268 8.24093 1.88 8.37354 1.88H9.32354C9.76202 4.09422 10.6172 6.20498 11.8435 8.1L14.6035 12H17.0035V18Z" fill="#707070"/>
</svg>
