<svg width="23" height="20" viewBox="0 0 23 20" fill="none" xmlns="http://www.w3.org/2000/svg">
<path d="M23 10C22.9989 9.84308 22.9664 9.68797 22.9046 9.54373C22.8428 9.3995 22.7528 9.26904 22.64 9.16L13 0V6H10C7.34784 6 4.8043 7.05357 2.92893 8.92893C1.05357 10.8043 0 13.3478 0 16V20H1.87C1.89889 18.3952 2.55809 16.8662 3.70514 15.7435C4.85218 14.6208 6.39495 13.9945 8 14H13V20L22.63 10.86C22.7471 10.7495 22.8403 10.6162 22.9039 10.4683C22.9676 10.3204 23.0003 10.161 23 10ZM15 15.54V12H8C6.85661 12.0259 5.73148 12.2922 4.69775 12.7814C3.66402 13.2707 2.74485 13.9721 2 14.84C2.28052 12.9251 3.24571 11.1768 4.7167 9.91907C6.1877 8.66137 8.06475 7.97956 10 8H15V4.48L20.81 10L15 15.54Z" fill="#707070"/>
</svg>
