<svg width="16" height="16" viewBox="0 0 16 16" fill="none" xmlns="http://www.w3.org/2000/svg">
<path d="M15 8C15 4.13401 11.866 1 8 1C4.13401 1 1 4.13401 1 8C1 11.866 4.13401 15 8 15C11.866 15 15 11.866 15 8Z" fill="#DEB8DC"/>
<path d="M13 8C13 5.23858 10.7614 3 8 3C5.23858 3 3 5.23858 3 8C3 10.7614 5.23858 13 8 13C10.7614 13 13 10.7614 13 8Z" fill="#F9F0F8" stroke="#523951"/>
<mask id="mask0" mask-type="alpha" maskUnits="userSpaceOnUse" x="2" y="2" width="12" height="12">
<path d="M8 13.5C6.5418 13.4984 5.14377 12.9184 4.11267 11.8873C3.08156 10.8562 2.50159 9.4582 2.5 8C2.5 4.967 4.968 2.5 8 2.5C11.032 2.5 13.5 4.967 13.5 8C13.5 11.033 11.032 13.5 8 13.5Z" fill="white"/>
</mask>
<g mask="url(#mask0)">
<path fill-rule="evenodd" clip-rule="evenodd" d="M6.40195 6.34998C6.31659 6.34998 6.23207 6.36679 6.15321 6.39945C6.07435 6.43212 6.00269 6.48 5.94233 6.54036C5.88198 6.60071 5.8341 6.67237 5.80143 6.75123C5.76877 6.83009 5.75195 6.91462 5.75195 6.99998C5.75195 7.08533 5.76877 7.16986 5.80143 7.24872C5.8341 7.32758 5.88198 7.39924 5.94233 7.4596C6.00269 7.51995 6.07435 7.56783 6.15321 7.6005C6.23207 7.63316 6.31659 7.64998 6.40195 7.64998C6.57434 7.64998 6.73967 7.58149 6.86157 7.4596C6.98347 7.3377 7.05195 7.17237 7.05195 6.99998C7.05195 6.82758 6.98347 6.66225 6.86157 6.54036C6.73967 6.41846 6.57434 6.34998 6.40195 6.34998ZM9.63395 6.96598C9.54859 6.96598 9.46407 6.98279 9.38521 7.01545C9.30635 7.04812 9.23469 7.096 9.17433 7.15636C9.11398 7.21671 9.0661 7.28837 9.03343 7.36723C9.00077 7.44609 8.98395 7.53062 8.98395 7.61598C8.98395 7.70134 9.00077 7.78586 9.03343 7.86472C9.0661 7.94358 9.11398 8.01524 9.17433 8.07559C9.23469 8.13595 9.30635 8.18383 9.38521 8.2165C9.46407 8.24916 9.54859 8.26598 9.63395 8.26598C9.80634 8.26598 9.97167 8.19749 10.0936 8.07559C10.2155 7.9537 10.284 7.78837 10.284 7.61598C10.284 7.44359 10.2155 7.27825 10.0936 7.15636C9.97167 7.03446 9.80634 6.96598 9.63395 6.96598Z" fill="#523951" stroke="#523951" stroke-width="0.1"/>
<path d="M9.23995 5.81408C9.46995 5.73208 9.72495 5.73208 9.95495 5.81408C10.193 5.86908 10.4 6.00408 10.538 6.19408M5.75195 5.00709C5.92595 4.84309 6.15995 4.74609 6.40595 4.73309C6.65195 4.69909 6.90095 4.75308 7.10595 4.88308L5.75195 5.00709Z" stroke="#523951" stroke-width="0.9" stroke-linecap="round" stroke-linejoin="round"/>
<path fill-rule="evenodd" clip-rule="evenodd" d="M8.11003 9.96994C8.18244 9.9567 8.25682 9.95867 8.32843 9.97571C8.40005 9.99276 8.46734 10.0245 8.52603 10.0689C8.64603 10.1589 8.72603 10.2949 8.74803 10.4469C8.76628 10.5932 8.73025 10.7411 8.64676 10.8625C8.56327 10.984 8.43812 11.0706 8.29503 11.1059L6.90003 11.3509C7.02003 11.3309 7.14303 11.3619 7.24003 11.4379C7.33912 11.5148 7.40382 11.6276 7.42003 11.7519C7.44023 11.8721 7.4151 11.9955 7.34951 12.0983C7.28393 12.201 7.18255 12.2757 7.06503 12.3079C7.19503 12.3779 7.28503 12.5079 7.30903 12.6579C7.32697 12.7705 7.30668 12.8859 7.2514 12.9855C7.19611 13.0852 7.10902 13.1635 7.00403 13.2079C7.07713 13.305 7.11136 13.4259 7.10003 13.5469C7.08998 13.6619 7.04167 13.7702 6.96281 13.8545C6.88395 13.9388 6.7791 13.9943 6.66503 14.0119L6.50303 14.0479C6.08303 14.1429 5.65903 14.2159 5.23203 14.2659C4.74604 14.2729 4.26049 14.2334 3.78203 14.1479C3.61818 14.1102 3.46701 14.0303 3.34339 13.9164C3.21977 13.8024 3.12797 13.6582 3.07703 13.4979C2.76003 12.8129 2.58703 11.5169 2.97503 11.1419C3.36403 10.7679 3.29703 10.8619 3.48303 10.4169C3.66803 9.97294 3.86303 9.46294 4.01103 9.02694C4.15903 8.59294 4.21703 8.39694 4.49203 8.29094C4.62673 8.25065 4.77168 8.26279 4.89781 8.32492C5.02393 8.38706 5.12189 8.49459 5.17203 8.62594C5.21203 8.92794 5.19903 9.23594 5.13003 9.53194C5.06003 10.1359 5.05803 10.2749 5.13003 10.4809L8.11003 9.97094V9.96994Z" stroke="#523951" stroke-width="1.152" stroke-linecap="round" stroke-linejoin="round"/>
<path d="M4.78003 10.5499L8.11003 9.96994C8.18244 9.9567 8.25682 9.95867 8.32843 9.97571C8.40005 9.99276 8.46734 10.0245 8.52603 10.0689C8.64603 10.1589 8.72603 10.2949 8.74803 10.4469C8.76628 10.5932 8.73025 10.7411 8.64676 10.8625C8.56327 10.984 8.43812 11.0706 8.29503 11.1059L6.90003 11.3509C7.02003 11.3309 7.14303 11.3619 7.24003 11.4379C7.33912 11.5148 7.40382 11.6276 7.42003 11.7519C7.44023 11.8721 7.4151 11.9955 7.34951 12.0983C7.28393 12.201 7.18255 12.2757 7.06503 12.3079C7.19503 12.3779 7.28503 12.5079 7.30903 12.6579C7.32697 12.7705 7.30668 12.8859 7.2514 12.9855C7.19611 13.0852 7.10902 13.1635 7.00403 13.2079C7.07713 13.305 7.11136 13.4259 7.10003 13.5469C7.08998 13.6619 7.04167 13.7702 6.96281 13.8545C6.88395 13.9388 6.7791 13.9943 6.66503 14.0119L6.50303 14.0479C6.08303 14.1429 5.65903 14.2159 5.23203 14.2659C4.74604 14.2729 4.26049 14.2334 3.78203 14.1479C3.61818 14.1102 3.46701 14.0303 3.34339 13.9164C3.21977 13.8024 3.12797 13.6582 3.07703 13.4979C2.76003 12.8129 2.58703 11.5169 2.97503 11.1419C3.36403 10.7679 3.29703 10.8619 3.48303 10.4169C3.66803 9.97294 3.86303 9.46294 4.01103 9.02694C4.15903 8.59294 4.21703 8.39694 4.49203 8.29094C4.62673 8.25065 4.77168 8.26279 4.89781 8.32492C5.02393 8.38706 5.12189 8.49459 5.17203 8.62594C5.21203 8.92794 5.19903 9.23594 5.13003 9.53194C5.06003 10.1359 5.05803 10.2749 5.13003 10.4809" fill="#F9F0F8"/>
<path fill-rule="evenodd" clip-rule="evenodd" d="M8.11003 9.96994C8.18244 9.9567 8.25682 9.95867 8.32843 9.97571C8.40005 9.99276 8.46734 10.0245 8.52603 10.0689C8.64603 10.1589 8.72603 10.2949 8.74803 10.4469C8.76628 10.5932 8.73025 10.7411 8.64676 10.8625C8.56327 10.984 8.43812 11.0706 8.29503 11.1059L6.90003 11.3509C7.02003 11.3309 7.14303 11.3619 7.24003 11.4379C7.33912 11.5148 7.40382 11.6276 7.42003 11.7519C7.44023 11.8721 7.4151 11.9955 7.34951 12.0983C7.28393 12.201 7.18255 12.2757 7.06503 12.3079C7.19503 12.3779 7.28503 12.5079 7.30903 12.6579C7.32697 12.7705 7.30668 12.8859 7.2514 12.9855C7.19611 13.0852 7.10902 13.1635 7.00403 13.2079C7.07713 13.305 7.11136 13.4259 7.10003 13.5469C7.08998 13.6619 7.04167 13.7702 6.96281 13.8545C6.88395 13.9388 6.7791 13.9943 6.66503 14.0119L6.50303 14.0479C6.08303 14.1429 5.65903 14.2159 5.23203 14.2659C4.74604 14.2729 4.26049 14.2334 3.78203 14.1479C3.61818 14.1102 3.46701 14.0303 3.34339 13.9164C3.21977 13.8024 3.12797 13.6582 3.07703 13.4979C2.76003 12.8129 2.58703 11.5169 2.97503 11.1419C3.36403 10.7679 3.29703 10.8619 3.48303 10.4169C3.66803 9.97294 3.86303 9.46294 4.01103 9.02694C4.15903 8.59294 4.21703 8.39694 4.49203 8.29094C4.62673 8.25065 4.77168 8.26279 4.89781 8.32492C5.02393 8.38706 5.12189 8.49459 5.17203 8.62594C5.21203 8.92794 5.19903 9.23594 5.13003 9.53194C5.06003 10.1359 5.05803 10.2749 5.13003 10.4809L8.11003 9.97094V9.96994Z" stroke="#523951" stroke-width="0.5" stroke-linecap="round" stroke-linejoin="round"/>
</g>
</svg>
