<svg width="14" height="14" viewBox="0 0 14 14" fill="none" xmlns="http://www.w3.org/2000/svg">
<path d="M7 0C5.61553 0 4.26216 0.410543 3.11101 1.17971C1.95987 1.94888 1.06266 3.04213 0.532846 4.32122C0.00303298 5.6003 -0.13559 7.00776 0.134506 8.36563C0.404603 9.7235 1.07129 10.9708 2.05026 11.9497C3.02922 12.9287 4.2765 13.5954 5.63437 13.8655C6.99224 14.1356 8.3997 13.997 9.67879 13.4672C10.9579 12.9373 12.0511 12.0401 12.8203 10.889C13.5895 9.73785 14 8.38447 14 7C14 5.14348 13.2625 3.36301 11.9497 2.05025C10.637 0.737498 8.85652 0 7 0ZM7 1.84C7.3358 1.84072 7.67072 1.87421 8 1.94V3.59L6.29 5.29L6 5.59V6.59L3.09 3.67C3.5696 3.09916 4.16787 2.63973 4.84313 2.32368C5.5184 2.00764 6.25444 1.84258 7 1.84ZM8 12.06V10.38L7.45 10.1L6 9.38V8H9.09L9.8 8.72L8.32 12L8 12.06ZM1.84 7C1.84636 6.12631 2.07707 5.26891 2.51 4.51L5 7V9.38C5.00056 9.56467 5.05225 9.74557 5.14933 9.90267C5.24641 10.0598 5.38509 10.1869 5.55 10.27L7 11V12.16C5.6323 12.1574 4.32137 11.6129 3.35425 10.6458C2.38714 9.67864 1.84265 8.36771 1.84 7ZM9.69 11.39L10.78 9C10.8433 8.86133 10.8629 8.70666 10.8361 8.55659C10.8093 8.40652 10.7374 8.26818 10.63 8.16L9.79 7.32C9.70024 7.22307 9.59217 7.14488 9.47202 7.08996C9.35188 7.03503 9.22203 7.00446 9.09 7H7V6L8.71 4.29C8.89475 4.10374 8.9989 3.85234 9 3.59V2.24C9.87872 2.60371 10.6393 3.20407 11.1971 3.9743C11.755 4.74453 12.0882 5.65442 12.1597 6.60274C12.2312 7.55107 12.0382 8.50064 11.6022 9.34581C11.1662 10.191 10.5042 10.8986 9.69 11.39Z" fill="#707070"/>
</svg>
